HIERARCHY
ROOT Hips
{
    OFFSET 8.194452285766602 85.02826690673828 -16.989479064941406
    CHANNELS 6 Xposition Yposition Zposition Zrotation Xrotation Yrotation
    JOINT RightUpLeg
    {
        OFFSET -8.194452285766602 0.0 0.0
        CHANNELS 3 Zrotation Xrotation Yrotation
        JOINT RightLeg
        {
            OFFSET 0.0 -42.55457305908203 0.0
            CHANNELS 3 Zrotation Xrotation Yrotation
            JOINT RightFoot
            {
                OFFSET 0.0 -42.47369384765625 0.0
                CHANNELS 3 Zrotation Xrotation Yrotation
                End Site
                {
                    OFFSET 0.0 0.0 16.989479064941406
                }
            }
        }
    }
    JOINT LeftUpLeg
    {
        OFFSET 8.194452285766602 0.0 0.0
        CHANNELS 3 Zrotation Xrotation Yrotation
        JOINT LeftLeg
        {
            OFFSET 0.0 -42.55457305908203 0.0
            CHANNELS 3 Zrotation Xrotation Yrotation
            JOINT LeftFoot
            {
                OFFSET 0.0 -42.47369384765625 0.0
                CHANNELS 3 Zrotation Xrotation Yrotation
                End Site
                {
                    OFFSET 0.0 0.0 16.989479064941406
                }
            }
        }
    }
    JOINT Spine
    {
        OFFSET 0.0 21.670928955078125 0.0
        CHANNELS 3 Zrotation Xrotation Yrotation
        JOINT Spine3
        {
            OFFSET 0.0 20.542078018188477 0.0
            CHANNELS 3 Zrotation Xrotation Yrotation
            JOINT Neck
            {
                OFFSET 0.0 8.485236167907715 0.0
                CHANNELS 3 Zrotation Xrotation Yrotation
                End Site
                {
                    OFFSET 0.0 3.394094705581665 0.0
                }
            }
            JOINT LeftArm
            {
                OFFSET 9.888869285583496 0.0 0.0
                CHANNELS 3 Zrotation Xrotation Yrotation
                JOINT LeftForeArm
                {
                    OFFSET 24.958553314208984 0.0 0.0
                    CHANNELS 3 Zrotation Xrotation Yrotation
                    JOINT LeftHand
                    {
                        OFFSET 19.092464447021484 0.0 0.0
                        CHANNELS 3 Zrotation Xrotation Yrotation
                        End Site
                        {
                            OFFSET 7.636984825134277 0.0 0.0
                        }
                    }
                }
            }
            JOINT RightArm
            {
                OFFSET -9.888869285583496 0.0 0.0
                CHANNELS 3 Zrotation Xrotation Yrotation
                JOINT RightForeArm
                {
                    OFFSET -24.958553314208984 0.0 0.0
                    CHANNELS 3 Zrotation Xrotation Yrotation
                    JOINT RightHand
                    {
                        OFFSET -19.092464447021484 0.0 0.0
                        CHANNELS 3 Zrotation Xrotation Yrotation
                        End Site
                        {
                            OFFSET -7.636984825134277 0.0 0.0
                        }
                    }
                }
            }
        }
    }
}
MOTION
Frames: 9
Frame Time: 0.03333333333333333
0.00038129600579850376 86.07720184326172 -0.002673878101631999 5.786723900538397 4.144843829876874 73.9300503046949 8.470140063301447 4.27688999426948 -0.7955042799961601 11.547820741094377 9.891049253926079 -3.972156711726289 1.5902773407317582e-15 -2.758691436281349e-32 -1.9878466759146976e-15 2.7593346831488517 0.2921913694019654 -0.021072958821382708 0.8862492762816425 7.729009964124043 -0.7850253177486113 7.951386703658792e-16 7.951386703658792e-16 2.1369351766083005e-15 -25.97419333978972 23.22090739702672 9.900143664687766 8.696429129309948e-07 2.714458597426136e-07 -1.4919988470038887 -93.78888297135765 -17.009735602210583 147.11821580459375 139.99799582789262 -23.797756061350135 -163.3462872250814 2.387451805727854e-06 -3.427566613188503e-06 37.408409881465055 8.746525374024672e-15 -3.1805546814635183e-15 -4.770832022195277e-15 -89.02796543816017 9.601412374120956 160.98552696823768 -2.0934025659276244e-06 -2.5835702122546766e-06 -45.22454739627318 0.0 0.0 0.0
0.0005153038655407727 86.07679748535156 -0.002245168434455991 6.96607583203818 2.668910596929778 72.53691890553486 10.13013621376207 5.462518395580434 -0.7480515629089838 9.399489478819907 10.389373209172247 -3.177717807217218 -7.724336021587778e-32 3.1805546814635164e-15 2.7829853462805768e-15 3.1326923364959853 2.343503950327983 -0.03005761610316496 2.9260656337515587 8.287182019715813 -0.5493980976022711 -7.951386703658792e-16 3.9756933518293955e-16 7.156248033292914e-15 -22.85952954957195 18.166583990422968 8.337770659098206 8.143788988447606e-07 -6.08457673079808e-07 2.325781751417899 -90.47867652299892 -1.064556989920046 169.34819585859302 144.70572244037064 -40.401406662928096 -155.78513935953254 1.8846692190713515e-06 -5.050533665036153e-06 32.156147739387315 4.770832022195275e-15 0.0 0.0 -109.66324187657537 -32.356448189187 158.76974790611635 -3.632823512998423e-06 2.3679134696919186e-06 -20.215838372447116 1.7655625192200634e-31 -3.1805546814635168e-15 6.3611093629270335e-15
0.00068032240960747 86.07652282714844 -0.0022329636849462986 5.304951693033567 -0.13331814682274473 63.14436671275546 9.312119505526915 6.835160457866598 -0.37265898450297097 12.78577155012218 11.336371054237363 -3.194719279742574 1.5902773407317584e-15 -7.951386703658792e-16 -3.975693351829396e-15 4.4823354257605015 4.303990314045955 0.12180001919687321 6.0579305387489555 5.448087818833002 -0.42839583954127375 7.951386703658792e-16 -2.344887720839147e-32 -3.3793393490549868e-15 -16.574007616406472 16.884809181068025 6.929598132033512 7.238990832382542e-07 9.010770082034769e-07 11.52172879897744 -95.82052607252912 10.953781562235312 168.71079181050075 152.76003809613292 -46.15810490769406 -146.93289005806054 4.315934950211177e-06 9.458822487553311e-08 43.34944378521864 0.0 0.0 1.5902773407317588e-15 -88.89670168490923 13.529973347736226 172.5920803860488 2.4018719779121326e-06 3.990966721713308e-06 -27.8391397329809 3.180554681463516e-15 -3.531125038440127e-31 -1.2722218725854064e-14
-8.061433618422598e-05 86.0768051147461 -0.0026511000469326973 2.729305266087575 4.997819660614605 63.55408747692652 13.312702725535969 3.1408799835735297 -0.6923571512512173 3.4870946288006066 11.787215474268105 -3.3679417993346177 0.0 0.0 -3.975693351829397e-15 1.2497786047693031 -3.9695050412456374 0.03812076504084687 7.411374185380459 10.941878272980338 -1.5463874445107433 0.0 0.0 0.0 -20.06211078770135 11.717643879956976 4.388325326999513 -1.7521381102320022e-06 3.970973550313619e-07 4.525249250294204 -89.26353394930767 -15.368700051390068 178.20333762358987 142.6264752202357 -42.81031343177773 -163.3909947807976 -2.4605771447070115e-06 -6.847030455671523e-07 31.945567190222494 -5.466578358765419e-15 -3.793200724886855e-32 7.951386703658792e-16 -101.93841969216898 -7.245809036535085 177.91564994910306 -2.351424196519761e-06 -3.1529558122638583e-06 -38.14125109607572 3.1805546814635168e-15 -1.7655625192200634e-31 -6.3611093629270335e-15
0.00010392250260338187 86.07699584960938 -0.0029543996788561344 2.3199921763848317 5.258106323224607 62.33596713067665 10.496512478017609 1.4371866891579264 -0.16339017775130837 9.021663573883407 10.783769508919054 -3.06423388987274 1.5902773407317588e-15 -3.975693351829397e-15 -3.975693351829396e-16 1.8665167651615973 -3.633430826800825 -0.1087093477335075 6.841316688457368 16.850475907389264 -1.544291767283095 -2.3854160110976376e-15 -2.782985346280577e-15 -4.969616689786746e-16 -18.32482568281277 7.548638566693092 3.007585200075783 -3.7807440890069116e-07 1.2740793801975978e-07 5.742661599730644 -71.61686926120639 -13.254597125188479 177.77194253241748 129.70575584001992 -36.48546556812686 -174.88219434480212 -2.8009016354980633e-06 -4.530081406355779e-06 54.9331072559984 1.1927080055488192e-15 0.0 0.0 -96.87947032282194 -13.669868478078557 -179.61377729296044 -1.969340650447061e-06 -2.3292713258179182e-06 -31.813931759689996 0.0 0.0 0.0
-4.827343218494207e-05 86.07559967041016 -0.002501042792573571 4.0538506773726155 2.004739507770688 54.34808136916221 9.8458417528662 5.76577790425039 -0.511589244583776 3.9142403627237723 9.695617102982226 -1.5419914404540147 7.724336021587778e-32 3.1805546814635164e-15 -2.7829853462805768e-15 9.144657357003034 0.5137910493074271 -0.053269773887966894 1.3402350314589448 11.233204347929414 -1.1701512604246012 -5.379448300748631e-32 -7.951386703658792e-16 -7.752602036067322e-15 -12.143663816468747 5.679889583911868 1.7028989674370494 -2.1076786451552747e-07 -9.340366804505253e-07 5.3022640610537275 -52.525132760288194 -12.819210208611807 -160.0462766329341 120.82308302328974 -38.51176589988964 -179.10914166211796 5.362197647895012e-07 -1.6642401498741195e-08 34.41482006759692 -3.4787316828507214e-15 0.0 0.0 -95.38641739299966 -7.154122084315508 -178.4909021724497 -1.4777841287752286e-06 -3.847904195790796e-06 -35.92000153256573 -3.1805546814635168e-15 1.7655625192200634e-31 -6.3611093629270335e-15
0.0004337767604738474 86.07797241210938 -0.0030812006443738937 6.351452420387786 4.57779907441365 60.79524707246042 2.0397803721587864 7.133612205979394 -0.0047606860755968925 7.449202368531891 5.136908570560047 -0.6789337292003912 0.0 0.0 0.0 6.425289941876619 1.8411651912219005 -0.15970551609169772 -0.21026039692618737 8.541745330270128 -0.6763715052601877 -7.951386703658792e-16 2.069018577211012e-33 -2.981770013872047e-16 -17.10208479165659 15.748168124820511 5.312248693854111 5.713907507814582e-08 2.7030688937406567e-07 1.653000698525266 -44.579622682439805 34.890558277144514 -167.85107423684232 127.26304433021318 -52.744690013547014 -166.29064784685224 -8.241975410485068e-07 -2.8303494039490365e-06 36.57965526224866 1.5902773407317584e-15 7.951386703658792e-16 2.3854160110976376e-15 -109.74486014618554 -34.89037566624487 163.70072304155917 5.2709670308794905e-06 2.1348655516439193e-06 -31.05512913461756 6.3611093629270335e-15 6.3611093629270335e-15 -3.531125038440127e-31
0.0011533221695572138 86.07872009277344 -0.0030179230961948633 7.579776815731377 -2.715430434413723 54.847638904363706 6.645014457849969 12.966901523353663 -1.7643244678590666 8.011173317998594 7.272987886819285 -2.0209346575636373 1.9310840053969444e-32 -7.95138670365879e-16 2.7829853462805764e-15 9.301632172870534 5.7822881228069205 -1.0776703083198023 4.241077627701288 6.175129317168429 -1.636970494056696 -1.3793457181406746e-32 1.5902773407317584e-15 9.93923337957349e-16 -19.969359879284013 12.969089293951972 4.347642942025085 2.6178667188799357e-06 -1.0022033546264186e-06 11.772909323872291 -77.48402002499687 53.31147224759562 165.99304337235844 -179.9835193362316 -65.57291752454839 -122.01292216440338 -1.4241281839690994e-06 7.674830484907055e-07 31.64513995993866 -8.845917707820405e-15 -3.1805546814635164e-15 -2.4552353782904005e-31 -86.45664832354858 12.343709258622427 172.06677956558474 -5.253274399218259e-06 1.6619352742177425e-06 -44.759135105735204 7.156248033292914e-15 6.3611093629270335e-15 6.361109362927033e-15
0.0006977785378694534 86.07955169677734 -0.0026892959140241146 4.4197076495715795 -2.4790302240703412 61.36039313462309 13.23738222128306 12.681897867709678 -1.8997097128910203 6.440521878288127 2.309894860178019 -0.6098937859575914 1.5902773407317584e-15 7.951386703658792e-16 7.951386703658792e-16 6.580248261087802 3.96065656848195 -0.14590941614422637 12.409880969044439 2.498183697796445 -0.6504664100467196 1.5902773407317582e-15 3.1805546814635168e-15 3.578124016646457e-15 -27.523001764793268 19.113946341787983 11.586365740975499 9.550003567449367e-07 1.3825362238824432e-07 10.854121965648785 -96.79036380071429 49.527617524570985 150.2312729473179 157.9902075782594 -38.09410799635709 -142.02062262177407 -5.9979108174575125e-06 -1.8755413248895473e-07 32.00342007341108 -8.547740706433202e-15 3.9756933518293955e-16 7.951386703658792e-16 -113.94242243272309 -28.786140226678675 148.8184651441633 -2.2666455935696743e-06 2.984146009448641e-06 -24.645692885000347 1.7655625192200634e-31 3.1805546814635168e-15 -6.3611093629270335e-15
